# xmcd
#
# Track frame offsets: 
#        150
#        16750
#        37118
#        60313
#        83731
#        104156
#        122602
#        141111
#        162708
#        180459
#        198126
#        216971
#        233786
#        248993
#        268216
#        290866
#        307676
#
# Disc length: 4395 seconds
#
# Revision: 0
# Processed by: cddbd v1.5.2PL0 Copyright (c) Steve Scherf et al.
# Submitted via: ExactAudioCopyFreeDBPlugin 1.0
#
DISCID=f5112911
DTITLE=White Lightnin' Washboard Band - White Lightnin' Washboard Band
DYEAR=1999
DGENRE=Blues
TTITLE0=Bey, Bey, Blues
TTITLE1=Coney Island Washboard
TTITLE2=Somebody Stole My Gal
TTITLE3=St. James Infirmary
TTITLE4=Cotton Fields
TTITLE5=Shine
TTITLE6=Bill Bailey
TTITLE7=Just A Closer Walk With Thee
TTITLE8=My Blue Heaven
TTITLE9=Tiger Rag
TTITLE10=The World Is Waiting For The Sunrise
TTITLE11=When You're Smiling
TTITLE12=I've Found A New Baby
TTITLE13=Do Lord
TTITLE14=I Can't Give You Anything But Love
TTITLE15=Jambalaya (On The Bayou)
TTITLE16=When The Saints Go Marching In
EXTD=
EXTT0=
EXTT1=
EXTT2=
EXTT3=
EXTT4=
EXTT5=
EXTT6=
EXTT7=
EXTT8=
EXTT9=
EXTT10=
EXTT11=
EXTT12=
EXTT13=
EXTT14=
EXTT15=
EXTT16=
PLAYORDER=
